#tb 0: 1/25
0,          0,          0,        1,   152064, 0x34769690
0,          1,          1,        1,   152064, 0xd97fce5a
0,          2,          2,        1,   152064, 0xbccdc588
0,          3,          3,        1,   152064, 0xcef0ee1f
0,          4,          4,        1,   152064, 0x801c76e8
